<svg width="31" height="42" viewBox="0 0 31 42" fill="none" xmlns="http://www.w3.org/2000/svg">
<g clip-path="url(#clip0_105_1434)">
<path fill-rule="evenodd" clip-rule="evenodd" d="M17.679 25.1494H25.0403C26.5989 25.1494 27.8749 26.2603 27.8749 27.6172V30.085H27.8435V39.7373C27.8435 41.0942 26.5675 41.9385 25.0089 41.9385H22.1743V30.977C22.1743 29.9585 22.3941 30.0815 21.2674 30.0815H13.9767V30.0679H10.3412C7.99342 30.0679 6.07751 28.3999 6.07751 26.356V15.6133C6.07751 13.5352 8.02875 11.8398 10.4119 11.8398H12.5594C15.5785 11.8398 16.2342 13.0669 16.9526 14.3794L20.7923 15.9824C23.4188 17.0112 22.7396 17.2163 24.522 15.2954L25.1659 14.6016C24.1334 14.0308 22.9595 13.3643 22.1429 11.8262C21.5383 10.77 21.3459 10.2471 20.3133 9.45752C19.854 9.86768 19.0491 9.40283 19.481 8.90381C19.6734 8.68164 20.5253 7.82031 20.7334 7.65967C21.2752 7.24609 21.8798 7.7998 21.4597 8.31934C22.4923 9.10889 23.1283 9.1875 24.4121 9.57373C26.6028 10.1685 27.5058 11.3101 28.4245 12.1851C29.4571 12.2329 30.6035 12.8208 30.9176 13.7402C30.9882 13.8428 31.0196 13.959 30.9922 14.0923C31.0353 14.5161 30.9019 14.998 30.525 15.5176L27.1682 19.5029C25.7705 21.1641 23.9096 21.3999 21.66 20.583L17.7457 19.3833C17.7457 21.7896 17.7261 22.7432 17.679 25.1494ZM24.6987 11.792C24.9853 11.5083 25.48 11.481 25.8019 11.7305C26.1278 11.98 26.1592 12.4106 25.8765 12.6909C25.5899 12.9746 25.0952 13.002 24.7694 12.7524C24.4435 12.5063 24.4121 12.0757 24.6987 11.792ZM25.2248 14.3145C24.4474 13.8188 23.6544 13.2446 23.0262 12.4756L25.213 10.3052C26.171 10.7495 26.9287 11.3579 27.5961 11.9629L25.2248 14.3145ZM0.78521 18.1152H2.85423C3.27432 18.1152 3.55307 18.4194 3.61981 18.7817C4.40502 23.0679 4.8251 27.3574 4.80155 31.6436H18.9471C19.5046 31.6436 19.96 32.04 19.96 32.5254V34.3096H19.1512V41.6719C19.1512 41.8188 19.0099 41.9419 18.8411 41.9419H16.1321C15.9633 41.9419 15.8219 41.8223 15.8219 41.6719V37.7002H4.24405C4.07523 38.9102 3.86715 40.1201 3.61981 41.3301C3.54522 41.6924 3.27432 41.9966 2.85423 41.9966H0.78521C0.365124 41.9966 -0.102075 41.6821 0.0196327 41.3301C2.74823 33.0723 2.17503 26.7627 0.0196327 18.7817C-0.0824443 18.4229 0.361198 18.1152 0.78521 18.1152ZM15.818 36.4731V34.3164H4.75444C4.69162 35.9844 4.55813 34.8052 4.35398 36.48H15.8141V36.4731H15.818ZM12.4259 0C15.7002 0 18.3582 2.31396 18.3582 5.16455C18.3582 8.01514 15.7002 10.3291 12.4259 10.3291C9.1516 10.3291 6.49367 8.01514 6.49367 5.16455C6.4976 2.31396 9.1516 0 12.4259 0Z" fill="white"/>
</g>
<defs>
<clipPath id="clip0_105_1434">
<rect width="31" height="42" fill="white"/>
</clipPath>
</defs>
</svg>
