<svg width="45" height="53" viewBox="0 0 45 53" fill="none" xmlns="http://www.w3.org/2000/svg">
<g clip-path="url(#clip0_106_1444)" filter="url(#filter0_d_106_1444)">
<path d="M35.703 13.8719C35.6628 13.0693 35.0019 12.4406 34.1983 12.4406H28.9722L27.7113 4.45442C27.3037 1.87328 25.1114 0 22.4963 0C19.8833 0 17.6909 1.87328 17.2834 4.45442L16.0224 12.4406H10.7963C9.99272 12.4406 9.33181 13.0693 9.29167 13.8719L7.81435 43.4183C7.79384 43.8284 7.9444 44.2343 8.22742 44.5318C8.51044 44.8293 8.90835 45 9.31908 45H35.6757C36.0863 45 36.4841 44.8293 36.7671 44.5318C37.0502 44.2343 37.2007 43.8285 37.1802 43.4183L35.703 13.8719ZM18.7235 4.68185C19.0186 2.81372 20.6051 1.45788 22.4983 1.45788C24.3895 1.45788 25.9763 2.81372 26.2713 4.68185L27.4964 12.4406H17.4985L18.7235 4.68185ZM35.7109 43.5271C35.6965 43.5421 35.6813 43.5421 35.6757 43.5421H9.31908C9.31335 43.5421 9.29828 43.5421 9.2839 43.5271C9.26951 43.512 9.27029 43.4968 9.27058 43.4912L10.7479 13.9448C10.7492 13.9188 10.7706 13.8985 10.7965 13.8985H15.7924L15.5571 15.3884C15.4943 15.7862 15.7657 16.1594 16.1634 16.2222C16.2018 16.2283 16.2401 16.2312 16.2779 16.2312C16.6304 16.2312 16.9403 15.975 16.9971 15.6159L17.2682 13.8985H27.7265L27.9977 15.6159C28.0605 16.0135 28.4334 16.2846 28.8314 16.2222C29.229 16.1594 29.5005 15.7862 29.4377 15.3884L29.2025 13.8985H34.1983C34.2243 13.8985 34.2456 13.9188 34.2469 13.9448L35.7243 43.4912C35.7245 43.4968 35.7252 43.5119 35.7109 43.5271Z" fill="white"/>
<path d="M22.4957 18.6609C22.0932 18.6609 21.7668 18.9872 21.7668 19.3898V23.3261H20.8921V19.3898C20.8921 18.9872 20.5657 18.6609 20.1631 18.6609C19.7605 18.6609 19.4342 18.9872 19.4342 19.3898V23.3261H18.5594V19.3898C18.5594 18.9872 18.2331 18.6609 17.8305 18.6609C17.4279 18.6609 17.1016 18.9872 17.1016 19.3898V24.8326C17.1016 26.092 18.1262 27.1166 19.3856 27.1166H19.4342V39.6058C19.4342 40.0085 19.7605 40.3348 20.1631 40.3348C20.5657 40.3348 20.8921 40.0085 20.8921 39.6058V27.1166H20.9407C22.2001 27.1166 23.2247 26.092 23.2247 24.8326V19.3898C23.2247 18.9872 22.8983 18.6609 22.4957 18.6609ZM21.7668 24.8326C21.7668 25.2882 21.3962 25.6587 20.9407 25.6587H19.3856C18.93 25.6587 18.5594 25.2882 18.5594 24.8326V24.784H21.7668V24.8326Z" fill="white"/>
<path d="M27.9578 20.0949C27.8785 19.3016 27.2175 18.7034 26.4203 18.7034C25.5682 18.7034 24.875 19.3967 24.875 20.2486V39.6058C24.875 40.0085 25.2014 40.3348 25.6039 40.3348C26.0065 40.3348 26.3329 40.0085 26.3329 39.6058V34.892H26.9857C27.6323 34.892 28.2512 34.6163 28.6837 34.1357C29.1162 33.655 29.3251 33.0106 29.2571 32.3676L27.9578 20.0949ZM27.5999 33.1606C27.4412 33.3369 27.2231 33.4341 26.9858 33.4341H26.3329V20.2486C26.3329 20.2004 26.3721 20.1613 26.4203 20.1613C26.4654 20.1613 26.5028 20.1951 26.5076 20.2442L27.8073 32.5211C27.8323 32.757 27.7586 32.9841 27.5999 33.1606Z" fill="white"/>
</g>
<defs>
<filter id="filter0_d_106_1444" x="-4" y="0" width="53" height="53" filterUnits="userSpaceOnUse" color-interpolation-filters="sRGB">
<feFlood flood-opacity="0" result="BackgroundImageFix"/>
<feColorMatrix in="SourceAlpha" type="matrix" values="0 0 0 0 0 0 0 0 0 0 0 0 0 0 0 0 0 0 127 0" result="hardAlpha"/>
<feOffset dy="4"/>
<feGaussianBlur stdDeviation="2"/>
<feComposite in2="hardAlpha" operator="out"/>
<feColorMatrix type="matrix" values="0 0 0 0 0 0 0 0 0 0 0 0 0 0 0 0 0 0 0.25 0"/>
<feBlend mode="normal" in2="BackgroundImageFix" result="effect1_dropShadow_106_1444"/>
<feBlend mode="normal" in="SourceGraphic" in2="effect1_dropShadow_106_1444" result="shape"/>
</filter>
<clipPath id="clip0_106_1444">
<rect width="45" height="45" fill="white"/>
</clipPath>
</defs>
</svg>
